<?xml version="1.0" encoding="UTF-8" standalone="no"?>
<svg
   viewBox="0 0 512 512"
   version="1.1"
   id="svg4"
   sodipodi:docname="envelope-regular.svg"
   inkscape:version="1.1 (c68e22c387, 2021-05-23)"
   inkscape:export-filename="C:\Users\macue\Downloads\envelope-regular.png"
   inkscape:export-xdpi="96"
   inkscape:export-ydpi="96"
   xmlns:inkscape="http://www.inkscape.org/namespaces/inkscape"
   xmlns:sodipodi="http://sodipodi.sourceforge.net/DTD/sodipodi-0.dtd"
   xmlns="http://www.w3.org/2000/svg"
   xmlns:svg="http://www.w3.org/2000/svg">
  <defs
     id="defs8" />
  <sodipodi:namedview
     id="namedview6"
     pagecolor="#ffffff"
     bordercolor="#666666"
     borderopacity="1.0"
     inkscape:pageshadow="2"
     inkscape:pageopacity="0.0"
     inkscape:pagecheckerboard="0"
     showgrid="false"
     inkscape:zoom="1.453125"
     inkscape:cx="244.98925"
     inkscape:cy="255.65591"
     inkscape:window-width="1920"
     inkscape:window-height="991"
     inkscape:window-x="-32000"
     inkscape:window-y="-32000"
     inkscape:window-maximized="0"
     inkscape:current-layer="svg4" />
  <!--!Font Awesome Free 6.7.1 by @fontawesome - https://fontawesome.com License - https://fontawesome.com/license/free Copyright 2024 Fonticons, Inc.-->
  <path
     d="m 2.5,65.875 c -0.34375,0 -0.625,0.28125 -0.625,0.625 v 0.863281 l 6.7382813,5.53125 c 0.8085937,0.664063 1.9687497,0.664063 2.7773437,0 L 18.125,67.363281 V 66.5 c 0,-0.34375 -0.28125,-0.625 -0.625,-0.625 z M 1.875,69.789062 V 76.5 c 0,0.34375 0.28125,0.625 0.625,0.625 h 15 c 0.34375,0 0.625,-0.28125 0.625,-0.625 v -6.710938 l -5.546875,4.554688 c -1.5,1.230469 -3.6601562,1.230469 -5.15625,0 z M 0,66.5 C 0,65.121094 1.1210937,64 2.5,64 h 15 c 1.378906,0 2.5,1.121094 2.5,2.5 v 10 C 20,77.878906 18.878906,79 17.5,79 H 2.5 C 1.1210937,79 0,77.878906 0,76.5 Z"
     id="path2"
     style="fill:#ffffff;fill-opacity:1;stroke-width:1"
     inkscape:export-filename="C:\Users\macue\Downloadsicono-email2.png"
     inkscape:export-xdpi="96"
     inkscape:export-ydpi="96" />
</svg>
