<?xml version="1.0" encoding="UTF-8" standalone="no"?>
<svg
   viewBox="0 0 20 15"
   version="1.1"
   id="svg4"
   sodipodi:docname="envelope-regular.svg"
   inkscape:version="1.1 (c68e22c387, 2021-05-23)"
   inkscape:export-filename="C:\Users\macue\Downloads\envelope-regular.png"
   inkscape:export-xdpi="96"
   inkscape:export-ydpi="96"
   width="20"
   height="15"
   xmlns:inkscape="http://www.inkscape.org/namespaces/inkscape"
   xmlns:sodipodi="http://sodipodi.sourceforge.net/DTD/sodipodi-0.dtd"
   xmlns="http://www.w3.org/2000/svg"
   xmlns:svg="http://www.w3.org/2000/svg">
  <defs
     id="defs8" />
  <sodipodi:namedview
     id="namedview6"
     pagecolor="#fffffe"
     bordercolor="#666666"
     borderopacity="1.0"
     inkscape:pageshadow="2"
     inkscape:pageopacity="0"
     inkscape:pagecheckerboard="0"
     showgrid="false"
     inkscape:zoom="5.8125"
     inkscape:cx="39.139785"
     inkscape:cy="44.989247"
     inkscape:window-width="1902"
     inkscape:window-height="991"
     inkscape:window-x="0"
     inkscape:window-y="0"
     inkscape:window-maximized="0"
     inkscape:current-layer="svg4"
     fit-margin-top="0"
     fit-margin-left="0"
     fit-margin-right="0"
     fit-margin-bottom="0" />
  <!--!Font Awesome Free 6.7.1 by @fontawesome - https://fontawesome.com License - https://fontawesome.com/license/free Copyright 2024 Fonticons, Inc.-->
  <path
     d="M 2.5,1.875 C 2.15625,1.875 1.875,2.15625 1.875,2.5 v 0.863281 l 6.7382813,5.53125 c 0.8085937,0.664063 1.9687497,0.664063 2.7773437,0 L 18.125,3.363281 V 2.5 C 18.125,2.15625 17.84375,1.875 17.5,1.875 Z M 1.875,5.789062 V 12.5 c 0,0.34375 0.28125,0.625 0.625,0.625 h 15 c 0.34375,0 0.625,-0.28125 0.625,-0.625 V 5.789062 l -5.546875,4.554688 c -1.5,1.230469 -3.6601562,1.230469 -5.15625,0 z M 0,2.5 C 0,1.121094 1.1210937,0 2.5,0 h 15 C 18.878906,0 20,1.121094 20,2.5 v 10 C 20,13.878906 18.878906,15 17.5,15 H 2.5 C 1.1210937,15 0,13.878906 0,12.5 Z"
     id="path2"
     style="fill:#ffffff;fill-opacity:1;stroke-width:1"
     inkscape:export-filename="C:\Users\macue\Downloadsicono-email2.png"
     inkscape:export-xdpi="96"
     inkscape:export-ydpi="96" />
</svg>
